# xmcd
#
# Track frame offsets:
# 150
# 13390
# 26932
# 43905
# 57685
# 72795
# 88207
# 101080
# 116865
# 134982
# 150647
# 161107
#
# Disc length: 2360 seconds
#
#
# Revision: 0
# Processed by: cddbd v1.5.1PL2 Copyright (c) Steve Scherf et al.
# Submitted via: FreeRIP 2.944 
#
DISCID=bf09360c
DTITLE=João Mulato and Pardinho - Janela da vida
DYEAR=1994
DGENRE=Country
TTITLE0=Prisioneiro feliz
TTITLE1=De novo em teus braços
TTITLE2=Mão amiga
TTITLE3=Há um ano atrás
TTITLE4=Viola brasileira
TTITLE5=Linda donzela
TTITLE6=Pagode quente
TTITLE7=Janela da vida
TTITLE8=Sol de verão
TTITLE9=Gosto de desgosto
TTITLE10=Uísque com gelo
TTITLE11=Punhos de aço
EXTD=
EXTT0=
EXTT1=
EXTT2=
EXTT3=
EXTT4=
EXTT5=
EXTT6=
EXTT7=
EXTT8=
EXTT9=
EXTT10=
EXTT11=
PLAYORDER=
